<svg xmlns="http://www.w3.org/2000/svg"  viewBox="0 0 48 48" width="96px" height="96px"><path fill="#8ce7f2" d="M44.475,24.803c0.774-2.528,0.53-5.23-0.722-7.583c-2.018-3.792-6.225-5.638-10.284-5.086	c-1.802-1.935-4.265-3.074-6.929-3.166c-4.294-0.149-7.996,2.572-9.547,6.363c-2.576,0.593-4.794,2.156-6.206,4.417	c-2.275,3.643-1.771,8.21,0.737,11.449c-0.774,2.528-0.53,5.23,0.722,7.583c2.018,3.792,6.225,5.638,10.284,5.086	c1.802,1.935,4.265,3.074,6.929,3.167c4.293,0.148,7.996-2.573,9.547-6.364c2.576-0.593,4.794-2.156,6.205-4.417	C47.486,32.608,46.982,28.042,44.475,24.803z"/><path fill="#18193f" d="M38.844,17.559l-7.523-4.343c-0.493-0.284-1.1-0.285-1.594-0.003l-10.245,5.855l0.021-4.018	l7.913-4.569c3.445-1.989,7.938-1.371,10.44,1.722c0.594,0.734,1.04,1.539,1.341,2.382c0.211,0.592,0.772,0.984,1.4,0.984	c1.037,0,1.772-1.03,1.421-2.006c-0.416-1.158-1.033-2.265-1.853-3.275c-2.488-3.065-6.393-4.357-10.151-3.807	c-1.987-2.124-4.699-3.373-7.63-3.473c-4.733-0.161-8.814,2.839-10.525,7.018c-2.842,0.654-5.289,2.378-6.847,4.873	c-3.318,5.313-1.284,12.41,4.142,15.543l7.523,4.343c0.493,0.284,1.1,0.285,1.594,0.003l10.245-5.855l-0.021,4.018l-7.902,4.563	c-3.448,1.991-7.945,1.378-10.451-1.715c-0.591-0.73-1.035-1.53-1.336-2.368c-0.212-0.591-0.772-0.982-1.4-0.982h0	c-1.039,0-1.774,1.033-1.421,2.01c0.326,0.901,0.774,1.771,1.344,2.589c2.43,3.487,6.613,5.039,10.645,4.465	c1.987,2.129,4.7,3.381,7.634,3.483c4.736,0.163,8.82-2.838,10.531-7.02c2.841-0.654,5.288-2.378,6.844-4.872	C46.303,27.788,44.269,20.691,38.844,17.559z M34,33.723c0,4.324-3.313,8.077-7.633,8.269c-1.837,0.082-3.585-0.463-5.024-1.496	c0.274-0.13,0.546-0.266,0.812-0.42l7.521-4.342c0.493-0.285,0.799-0.81,0.802-1.38l0.054-9.883c0.003-0.55-0.441-0.999-0.992-1	c-0.549-0.002-0.995,0.441-0.998,0.99l-0.011,2.172L18.498,32.37l-7.918-4.571c-3.745-2.163-5.339-6.908-3.345-10.745	c0.848-1.633,2.196-2.875,3.812-3.605C11.022,13.753,11,14.058,11,14.367v8.684c0,0.569,0.302,1.095,0.794,1.382l8.73,5.055	c0.475,0.275,1.082,0.113,1.358-0.361c0.277-0.476,0.114-1.085-0.362-1.361L14,23.42v-9.143c0-4.325,3.313-8.077,7.634-8.269	c1.835-0.081,3.582,0.462,5.02,1.494c-0.264,0.127-0.526,0.259-0.782,0.407l-7.548,4.357c-0.494,0.285-0.799,0.81-0.802,1.38	l-0.054,9.797c-0.003,0.55,0.441,0.999,0.992,1c0.549,0.002,0.995-0.441,0.998-0.99l0.011-2.087l4.552-2.603L34,24.58V33.723z M40.765,30.946c-0.848,1.633-2.195,2.875-3.812,3.604C36.978,34.248,37,33.944,37,33.636v-8.687c0-0.569-0.302-1.095-0.794-1.382	l-10.191-5.943l3.487-1.994l7.918,4.571C41.165,22.364,42.759,27.109,40.765,30.946z"/></svg>